<svg xmlns="http://www.w3.org/2000/svg" viewBox="0 0 64 64" role="img" aria-labelledby="title desc">
  <title id="title">Commute Planner favicon</title>
  <desc id="desc">Amber car icon on a dark rounded square background.</desc>
  <rect width="64" height="64" rx="16" fill="#0B0D10"/>
  <rect x="9" y="40" width="46" height="4" rx="2" fill="#262B33"/>
  <path d="M18 36c1.8-6.7 7.3-11 14-11h4.6c4.8 0 9.2 2.6 11.6 6.8L51 35c1.7.3 3 1.8 3 3.6V42c0 1.7-1.3 3-3 3h-2.2a5.8 5.8 0 0 1-11.6 0H26.8a5.8 5.8 0 0 1-11.6 0H13c-1.7 0-3-1.3-3-3v-1.4c0-2 1.4-3.8 3.4-4.4l1.6-.5Z" fill="#FFB020"/>
  <path d="M24 27.5h11.5c3.7 0 7.1 1.8 9.2 4.8l1.4 2H22.2c.6-3.4 3.5-6.8 6-6.8Z" fill="#FFCC66" opacity=".9"/>
  <rect x="21" y="30" width="10" height="5" rx="1.5" fill="#0B0D10" opacity=".28"/>
  <rect x="33" y="30" width="11" height="5" rx="1.5" fill="#0B0D10" opacity=".18"/>
  <circle cx="22" cy="44" r="4.5" fill="#0B0D10"/>
  <circle cx="45" cy="44" r="4.5" fill="#0B0D10"/>
  <circle cx="22" cy="44" r="2" fill="#EDEEF2"/>
  <circle cx="45" cy="44" r="2" fill="#EDEEF2"/>
  <path d="M14 22h7" stroke="#4FBF7A" stroke-width="2.2" stroke-linecap="round" opacity=".9"/>
</svg>
